<svg width="75" height="34" viewBox="0 0 75 34" fill="none" xmlns="http://www.w3.org/2000/svg">
<path d="M42.1441 12.7087L41.9218 14.1132H44.3166L44.0239 15.961H41.6299L41.1077 19.2575H38.9248L40.2558 10.8604H45.0778L44.7833 12.7087H42.1441Z" fill="#0267BB"/>
<path d="M47.1905 19.2575H45.0079L46.3379 10.8604H48.5208L47.1905 19.2575Z" fill="#0267BB"/>
<path d="M52.0368 12.7087L51.8142 14.1132H54.2758L53.9839 15.961H51.5221L51.292 17.4081H53.8875L53.5951 19.2575H48.8162L50.1472 10.8604H54.924L54.6318 12.7087H52.0368Z" fill="#0267BB"/>
<path d="M58.0695 12.7087H58.5819C59.9845 12.7087 60.8421 13.5556 60.6029 15.0591C60.3455 16.6947 59.1181 17.4081 57.8155 17.4081H57.3256L58.0695 12.7087ZM54.8499 19.2575H57.9464C60.2726 19.2575 62.5008 17.4206 62.8759 15.0591C63.2501 12.6986 61.6137 10.8604 59.2748 10.8604H56.1796L54.8499 19.2575Z" fill="#0267BB"/>
<path d="M30.0714 25.3017C30.6638 25.3017 30.9404 25.7728 30.8599 26.3312C30.7786 26.9077 30.3706 27.3518 29.7811 27.3518C29.1879 27.3518 28.9079 26.9077 28.9902 26.3312C29.0697 25.7728 29.4808 25.3017 30.0714 25.3017ZM27.2593 28.6047H28.7139L28.7861 28.0987H28.8017C29.0011 28.5517 29.4686 28.7558 29.9473 28.7558C31.1702 28.7558 32.1771 27.6372 32.3652 26.3221C32.5506 25.0163 31.8709 23.8982 30.6558 23.8982C30.1844 23.8982 29.6681 24.093 29.3003 24.494L29.7657 21.2344H28.3103L27.2593 28.6047Z" fill="#0267BB"/>
<path d="M32.4849 24.0537H34.1623L34.9243 26.3885L36.3286 24.0537H37.9824L33.7258 30.881H32.0938L33.906 27.9873L32.4849 24.0537Z" fill="#0267BB"/>
<path d="M45.6509 28.6054L47.8932 21.21H49.8937L47.6524 28.6054H45.6509Z" fill="#0267BB"/>
<path d="M44.757 21.21L42.9564 24.347C42.4991 25.1695 42.2303 25.5824 42.1027 26.1023H42.0744C42.1059 25.4435 42.0163 24.6355 42.0061 24.1789L41.8093 21.21H38.4393L38.4055 21.4094C39.2709 21.4094 39.7822 21.8457 39.9227 22.7352L40.579 28.6054H42.6541L46.8474 21.21H44.757Z" fill="#0267BB"/>
<path d="M60.3174 28.6013L60.2611 27.5014L57.763 27.4986L57.2511 28.6013H55.0786L59.0176 21.2217H61.6853L62.3504 28.6013H60.3174ZM60.0876 24.2377C60.0637 23.6928 60.0471 22.9511 60.0829 22.5028H60.0551C59.9326 22.8706 59.4095 23.9717 59.1765 24.5138L58.4346 26.1349H60.1889L60.0876 24.2377Z" fill="#0267BB"/>
<path d="M51.997 28.8186C50.5834 28.8186 49.6463 28.3693 48.9768 27.969L49.9286 26.5118C50.5301 26.8474 51.0038 27.2372 52.0889 27.2372C52.4393 27.2372 52.7753 27.145 52.9654 26.8154C53.2459 26.3337 52.9018 26.075 52.1201 25.6337L51.7331 25.3808C50.5735 24.5889 50.0728 23.8389 50.62 22.5261C50.9683 21.6841 51.8887 21.0488 53.4082 21.0488C54.4551 21.0488 55.4376 21.5012 56.01 21.9448L54.9125 23.2296C54.3549 22.7767 53.8929 22.5489 53.3623 22.5489C52.94 22.5489 52.6185 22.712 52.5091 22.9325C52.3016 23.3454 52.5761 23.6272 53.1854 24.0038L53.6446 24.2968C55.0506 25.1837 55.3852 26.1137 55.0325 26.9855C54.4279 28.4833 53.2384 28.8186 51.997 28.8186Z" fill="#0267BB"/>
<path d="M24.8103 12.7087L24.5885 14.1132H27.0493L26.7576 15.961H24.2961L24.0663 17.4081H26.6626L26.3686 19.2575H21.5905L22.9209 10.8604H27.6988L27.4064 12.7087H24.8103Z" fill="#0267BB"/>
<path d="M30.8786 12.5311H31.0906C31.8035 12.5311 32.5847 12.6646 32.4398 13.5777C32.2959 14.4913 31.4721 14.6246 30.7597 14.6246H30.5475L30.8786 12.5311ZM32.5192 15.8164C33.7451 15.6047 34.5499 14.6022 34.7325 13.4447C35.0163 11.6517 33.883 10.8604 32.2239 10.8604H28.9599L27.631 19.2578H29.8151L30.3252 16.0283H30.3475L31.8962 19.2578H34.614L32.5192 15.8164Z" fill="#0267BB"/>
<path d="M37.3072 19.2575H35.123L36.4538 10.8604H38.6367L37.3072 19.2575Z" fill="#0267BB"/>
<path d="M25.382 2.49023L21.946 7.95946L17.2746 15.87L17.0014 12.9212L16.7871 9.71562H12.4965L12.4534 9.96858C13.5548 9.96858 14.2064 10.5228 14.3877 11.6575L15.2213 19.1319L15.2265 19.1153L15.2377 19.2249H18.1877L23.4598 8.56095L26.6566 2.49023H25.382Z" fill="#0267BB"/>
<path d="M18.0146 11.4933H18.2634L21.3669 6.23598L21.3682 5.98926H14.308V6.2404L17.7104 7.68854L18.0146 11.4933Z" fill="#F9B10B"/>
</svg>
