<svg width="75" height="34" viewBox="0 0 75 34" fill="none" xmlns="http://www.w3.org/2000/svg">
<path d="M34.356 24.6752H30.2615L32.8225 8.59375H36.9167L34.356 24.6752Z" fill="#0267BB"/>
<path d="M49.1987 8.98641C48.3911 8.66102 47.1102 8.30176 45.5263 8.30176C41.4829 8.30176 38.6355 10.4915 38.618 13.6221C38.5845 15.9318 40.6567 17.2147 42.2065 17.9849C43.7906 18.7719 44.3291 19.2855 44.3291 19.987C44.313 21.0644 43.0491 21.561 41.8702 21.561C40.2355 21.561 39.3596 21.3049 38.0285 20.7055L37.4893 20.4486L36.9164 24.0585C37.8767 24.5029 39.646 24.8971 41.4829 24.9144C45.7791 24.9144 48.5761 22.7586 48.6092 19.4224C48.6256 17.5918 47.5313 16.189 45.1723 15.0428C43.7402 14.307 42.8632 13.8108 42.8632 13.0579C42.88 12.3735 43.605 11.6725 45.2216 11.6725C46.5527 11.6382 47.5307 11.9631 48.2716 12.2883L48.6419 12.459L49.1987 8.98641Z" fill="#0267BB"/>
<path d="M54.6408 18.9781C54.978 18.0543 56.2755 14.4787 56.2755 14.4787C56.2585 14.513 56.612 13.5378 56.8142 12.9391L57.1003 14.3247C57.1003 14.3247 57.8757 18.1741 58.0441 18.9781C57.4042 18.9781 55.4495 18.9781 54.6408 18.9781ZM59.6949 8.59375H56.5278C55.5511 8.59375 54.8091 8.88435 54.3878 9.92804L48.3059 24.675H52.6021C52.6021 24.675 53.3094 22.6902 53.4615 22.2627C53.9328 22.2627 58.1121 22.2627 58.7185 22.2627C58.836 22.8273 59.207 24.675 59.207 24.675H62.9981L59.6949 8.59375Z" fill="#0267BB"/>
<path d="M26.8416 8.59375L22.8317 19.5598L22.3936 17.3357C21.6522 14.7695 19.3272 11.9813 16.7327 10.595L20.4055 24.6582H24.7354L31.1712 8.59375H26.8416Z" fill="#0267BB"/>
<path d="M19.1084 8.59375H12.5208L12.4534 8.91868C17.5921 10.2532 20.9954 13.47 22.3937 17.3364L20.9616 9.94555C20.7259 8.91845 20.0013 8.62763 19.1084 8.59375Z" fill="#FAA61A"/>
</svg>
