<svg width="75" height="34" viewBox="0 0 75 34" fill="none" xmlns="http://www.w3.org/2000/svg">
<g clip-path="url(#clip0_183_160)">
<path d="M24.4477 32.209V30.1844C24.4477 29.4084 23.9531 28.9022 23.1052 28.9022C22.6812 28.9022 22.222 29.0372 21.904 29.4758C21.6567 29.1047 21.3034 28.9022 20.7734 28.9022C20.4201 28.9022 20.0668 29.0035 19.7842 29.3746V28.9697H19.0422V32.209H19.7842V30.4206C19.7842 29.847 20.1021 29.5771 20.5968 29.5771C21.0914 29.5771 21.3387 29.8807 21.3387 30.4206V32.209H22.0806V30.4206C22.0806 29.847 22.4339 29.5771 22.8932 29.5771C23.3878 29.5771 23.6352 29.8807 23.6352 30.4206V32.209H24.4477ZM35.4354 28.9697H34.2342V27.9912H33.4923V28.9697H32.821V29.6108H33.4923V31.0955C33.4923 31.8378 33.8102 32.2764 34.6582 32.2764C34.9761 32.2764 35.3294 32.1752 35.5767 32.0403L35.3648 31.4329C35.1528 31.5679 34.9055 31.6016 34.7288 31.6016C34.3755 31.6016 34.2342 31.3992 34.2342 31.0617V29.6108H35.4354V28.9697ZM41.7242 28.9022C41.3002 28.9022 41.0176 29.1047 40.8409 29.3746V28.9697H40.099V32.209H40.8409V30.3869C40.8409 29.847 41.0883 29.5433 41.5475 29.5433C41.6889 29.5433 41.8655 29.5771 42.0068 29.6108L42.2188 28.936C42.0775 28.9022 41.8655 28.9022 41.7242 28.9022ZM32.2204 29.2396C31.8671 29.0034 31.3725 28.9022 30.8425 28.9022C29.9946 28.9022 29.4293 29.3071 29.4293 29.9482C29.4293 30.4881 29.8533 30.7918 30.5952 30.893L30.9485 30.9268C31.3371 30.9942 31.5491 31.0955 31.5491 31.2642C31.5491 31.5004 31.2665 31.6691 30.7718 31.6691C30.2772 31.6691 29.8886 31.5004 29.6413 31.3317L29.288 31.8715C29.6766 32.1415 30.2066 32.2764 30.7365 32.2764C31.7258 32.2764 32.291 31.8378 32.291 31.2304C32.291 30.6568 31.8318 30.3531 31.1251 30.2519L30.7718 30.2182C30.4539 30.1844 30.2066 30.1169 30.2066 29.9145C30.2066 29.6783 30.4539 29.5433 30.8425 29.5433C31.2665 29.5433 31.6904 29.712 31.9024 29.8133L32.2204 29.2396ZM51.9346 28.9022C51.5107 28.9022 51.228 29.1047 51.0514 29.3746V28.9697H50.3094V32.209H51.0514V30.3869C51.0514 29.847 51.2987 29.5433 51.758 29.5433C51.8993 29.5433 52.0759 29.5771 52.2173 29.6108L52.4292 28.936C52.2879 28.9022 52.0759 28.9022 51.9346 28.9022ZM42.4661 30.5893C42.4661 31.5679 43.1727 32.2764 44.268 32.2764C44.7626 32.2764 45.1159 32.1752 45.4692 31.9053L45.1159 31.3317C44.8333 31.5341 44.5506 31.6353 44.2326 31.6353C43.632 31.6353 43.2081 31.2304 43.2081 30.5893C43.2081 29.982 43.632 29.5771 44.2326 29.5433C44.5506 29.5433 44.8333 29.6446 45.1159 29.847L45.4692 29.2734C45.1159 29.0034 44.7626 28.9022 44.268 28.9022C43.1727 28.9022 42.4661 29.6108 42.4661 30.5893ZM49.3202 30.5893V28.9697H48.5783V29.3746C48.3309 29.0709 47.9776 28.9022 47.5184 28.9022C46.5644 28.9022 45.8225 29.6108 45.8225 30.5893C45.8225 31.5679 46.5644 32.2764 47.5184 32.2764C48.013 32.2764 48.3663 32.1077 48.5783 31.8041V32.209H49.3202V30.5893ZM46.5998 30.5893C46.5998 30.0157 46.9884 29.5433 47.6243 29.5433C48.225 29.5433 48.6489 29.982 48.6489 30.5893C48.6489 31.163 48.225 31.6353 47.6243 31.6353C46.9884 31.6016 46.5998 31.163 46.5998 30.5893ZM37.7319 28.9022C36.7426 28.9022 36.036 29.5771 36.036 30.5893C36.036 31.6016 36.7427 32.2764 37.7672 32.2764C38.2618 32.2764 38.7565 32.1415 39.1451 31.8378L38.7918 31.3317C38.5092 31.5341 38.1559 31.6691 37.8026 31.6691C37.3433 31.6691 36.884 31.4666 36.778 30.893H39.2864V30.6231C39.3217 29.5771 38.6858 28.9022 37.7319 28.9022ZM37.7319 29.5096C38.1912 29.5096 38.5092 29.7795 38.5798 30.2857H36.8133C36.884 29.847 37.2019 29.5096 37.7319 29.5096ZM56.1389 30.5893V27.6875H55.397V29.3746C55.1497 29.0709 54.7964 28.9022 54.3371 28.9022C53.3832 28.9022 52.6412 29.6108 52.6412 30.5893C52.6412 31.5679 53.3832 32.2764 54.3371 32.2764C54.8317 32.2764 55.185 32.1077 55.397 31.8041V32.209H56.1389V30.5893ZM53.4185 30.5893C53.4185 30.0157 53.8071 29.5433 54.4431 29.5433C55.0437 29.5433 55.4676 29.982 55.4676 30.5893C55.4676 31.163 55.0437 31.6353 54.4431 31.6353C53.8071 31.6016 53.4185 31.163 53.4185 30.5893ZM28.6167 30.5893V28.9697H27.8748V29.3746C27.6275 29.0709 27.2742 28.9022 26.8149 28.9022C25.861 28.9022 25.119 29.6108 25.119 30.5893C25.119 31.5679 25.861 32.2764 26.8149 32.2764C27.3095 32.2764 27.6628 32.1077 27.8748 31.8041V32.209H28.6167V30.5893ZM25.861 30.5893C25.861 30.0157 26.2496 29.5433 26.8855 29.5433C27.4861 29.5433 27.9101 29.982 27.9101 30.5893C27.9101 31.163 27.4861 31.6353 26.8855 31.6353C26.2496 31.6016 25.861 31.163 25.861 30.5893Z" fill="black"/>
<path d="M43.1023 4.37207H31.9733V23.4702H43.1023V4.37207Z" fill="#FF5F00"/>
<path d="M32.6797 13.9207C32.6797 10.0403 34.5875 6.59859 37.5199 4.3716C35.3648 2.75197 32.6444 1.77344 29.6766 1.77344C22.6459 1.77344 16.9578 7.20595 16.9578 13.9207C16.9578 20.6354 22.6459 26.0679 29.6766 26.0679C32.6444 26.0679 35.3648 25.0894 37.5199 23.4697C34.5875 21.2765 32.6797 17.801 32.6797 13.9207Z" fill="#EB001B"/>
<path d="M58.1175 13.9207C58.1175 20.6354 52.4293 26.0679 45.3986 26.0679C42.4309 26.0679 39.7104 25.0894 37.5553 23.4697C40.523 21.2428 42.3955 17.801 42.3955 13.9207C42.3955 10.0403 40.4877 6.59859 37.5553 4.3716C39.7104 2.75197 42.4309 1.77344 45.3986 1.77344C52.4293 1.77344 58.1175 7.23969 58.1175 13.9207Z" fill="#F79E1B"/>
</g>
<defs>
<clipPath id="clip0_183_160">
<rect width="74.7196" height="33.2087" fill="white"/>
</clipPath>
</defs>
</svg>
