<svg width="75" height="34" viewBox="0 0 75 34" fill="none" xmlns="http://www.w3.org/2000/svg">
<path d="M26.3678 23.8132H15.1432V4.61035H26.3678V23.8132Z" fill="#6C6BBD"/>
<path d="M15.8557 14.2122C15.8557 10.3168 17.7716 6.84693 20.7551 4.61078C18.5733 2.97561 15.8198 1.99962 12.8273 1.99962C5.74278 1.99962 0 7.4673 0 14.2122C0 20.9571 5.74278 26.4248 12.8273 26.4248C15.8198 26.4248 18.5733 25.4488 20.7551 23.8136C17.7716 21.5775 15.8557 18.1076 15.8557 14.2122Z" fill="#D32011"/>
<path d="M41.5109 14.2122C41.5109 20.9571 35.7681 26.4248 28.6837 26.4248C25.6911 26.4248 22.9376 25.4488 20.755 23.8136C23.7394 21.5775 25.6553 18.1076 25.6553 14.2122C25.6553 10.3168 23.7394 6.84693 20.755 4.61078C22.9376 2.97561 25.6911 1.99962 28.6837 1.99962C35.7681 1.99962 41.5109 7.4673 41.5109 14.2122Z" fill="#0099DF"/>
<path d="M30.1656 29.2398C30.3148 29.2398 30.5293 29.267 30.6933 29.3283L30.4649 29.9929C30.3083 29.9316 30.1517 29.9114 30.0016 29.9114C29.5171 29.9114 29.2749 30.2096 29.2749 30.7453V32.5637H28.5335V29.3213H29.2676V29.715C29.46 29.43 29.7382 29.2398 30.1656 29.2398ZM27.4267 29.9658H26.2155V31.4309C26.2155 31.7562 26.3362 31.9736 26.7073 31.9736C26.8998 31.9736 27.142 31.9123 27.3623 31.7904L27.576 32.3937C27.3411 32.5497 26.9708 32.6453 26.6502 32.6453C25.7734 32.6453 25.4676 32.1972 25.4676 31.4441V29.9658H24.7759V29.3213H25.4676V28.3376H26.2155V29.3213H27.4267V29.9658ZM17.9418 30.6576C18.021 30.1894 18.3195 29.8703 18.8472 29.8703C19.3243 29.8703 19.631 30.1552 19.7093 30.6576H17.9418ZM20.4792 30.9425C20.4719 29.9316 19.8161 29.2398 18.8611 29.2398C17.8635 29.2398 17.1654 29.9316 17.1654 30.9425C17.1654 31.9729 17.8921 32.6445 18.9116 32.6445C19.4246 32.6445 19.8944 32.5226 20.308 32.1903L19.9442 31.6677C19.6595 31.8851 19.2958 32.007 18.954 32.007C18.4769 32.007 18.0422 31.7966 17.9353 31.2135H20.4646C20.4719 31.125 20.4792 31.0372 20.4792 30.9425ZM23.7352 30.149C23.5288 30.0263 23.1088 29.8703 22.6741 29.8703C22.2679 29.8703 22.0257 30.0131 22.0257 30.2507C22.0257 30.4673 22.2818 30.5287 22.6023 30.5691L22.9514 30.6164C23.6928 30.7189 24.1414 31.0171 24.1414 31.587C24.1414 32.2042 23.5713 32.6453 22.5884 32.6453C22.0322 32.6453 21.5192 32.5094 21.113 32.2244L21.4621 31.6747C21.7116 31.8579 22.0828 32.014 22.5958 32.014C23.1015 32.014 23.3722 31.8719 23.3722 31.6204C23.3722 31.4379 23.1798 31.3354 22.7736 31.2818L22.4245 31.2345C21.6619 31.132 21.2484 30.8066 21.2484 30.2779C21.2484 29.6334 21.8046 29.2398 22.6667 29.2398C23.2083 29.2398 23.7001 29.3555 24.0557 29.5791L23.7352 30.149ZM32.8742 29.9099C32.7217 29.9099 32.5806 29.9355 32.4493 29.986C32.3188 30.0372 32.2054 30.1086 32.11 30.2002C32.0146 30.2919 31.9395 30.4021 31.8849 30.5302C31.8302 30.6583 31.8033 30.7997 31.8033 30.9534C31.8033 31.1079 31.8302 31.2484 31.8849 31.3766C31.9395 31.5047 32.0146 31.6149 32.11 31.7065C32.2054 31.7982 32.3188 31.8696 32.4493 31.9208C32.5806 31.9721 32.7217 31.9969 32.8742 31.9969C33.0267 31.9969 33.1687 31.9721 33.2992 31.9208C33.4305 31.8696 33.5447 31.7982 33.6401 31.7065C33.7372 31.6149 33.8122 31.5047 33.8677 31.3766C33.9223 31.2484 33.9492 31.1079 33.9492 30.9534C33.9492 30.7997 33.9223 30.6583 33.8677 30.5302C33.8122 30.4021 33.7372 30.2919 33.6401 30.2002C33.5447 30.1086 33.4305 30.0372 33.2992 29.986C33.1687 29.9355 33.0267 29.9099 32.8742 29.9099ZM32.8742 29.2398C33.1385 29.2398 33.3832 29.2833 33.6083 29.371C33.8334 29.458 34.0283 29.5783 34.1923 29.7313C34.357 29.8842 34.4851 30.0651 34.5781 30.2732C34.671 30.4821 34.7175 30.7088 34.7175 30.9534C34.7175 31.198 34.671 31.4247 34.5781 31.6336C34.4851 31.8416 34.357 32.0233 34.1923 32.1763C34.0283 32.3292 33.8334 32.4488 33.6083 32.5366C33.3832 32.6235 33.1385 32.667 32.8742 32.667C32.61 32.667 32.3653 32.6235 32.1402 32.5366C31.9151 32.4488 31.7218 32.3292 31.5586 32.1763C31.3955 32.0233 31.2675 31.8416 31.1745 31.6336C31.0815 31.4247 31.035 31.198 31.035 30.9534C31.035 30.7088 31.0815 30.4821 31.1745 30.2732C31.2675 30.0651 31.3955 29.8842 31.5586 29.7313C31.7218 29.5783 31.9151 29.458 32.1402 29.371C32.3653 29.2833 32.61 29.2398 32.8742 29.2398ZM13.6125 30.9425C13.6125 30.3726 14.0048 29.9044 14.6459 29.9044C15.2585 29.9044 15.672 30.3524 15.672 30.9425C15.672 31.5326 15.2585 31.9798 14.6459 31.9798C14.0048 31.9798 13.6125 31.5124 13.6125 30.9425ZM16.3701 30.9425V29.3213H15.6296V29.715C15.3938 29.423 15.0382 29.2398 14.5538 29.2398C13.5987 29.2398 12.8507 29.9518 12.8507 30.9425C12.8507 31.9325 13.5987 32.6453 14.5538 32.6453C15.0382 32.6453 15.3938 32.462 15.6296 32.1701V32.5637H16.3701V30.9425ZM12.195 32.5637V30.5287C12.195 29.7623 11.682 29.2468 10.8557 29.2398C10.421 29.2328 9.9716 29.3617 9.6584 29.8167C9.42351 29.4572 9.0524 29.2398 8.53203 29.2398C8.16908 29.2398 7.81266 29.3415 7.53453 29.7212V29.3213H6.79395V32.5637H7.54187V30.7663C7.54187 30.2034 7.86975 29.9044 8.37543 29.9044C8.86725 29.9044 9.11683 30.2096 9.11683 30.7593V32.5637H9.86476V30.7663C9.86476 30.2034 10.2073 29.9044 10.6983 29.9044C11.2048 29.9044 11.4471 30.2096 11.4471 30.7593V32.5637H12.195Z" fill="black"/>
</svg>
