<svg width="69" height="66" viewBox="0 0 69 66" fill="none" xmlns="http://www.w3.org/2000/svg">
<rect x="1.5" y="1" width="66" height="64" rx="14" stroke="#E8ECF3" stroke-width="2"/>
<path opacity="0.4" d="M40.03 28.77C39.96 28.76 39.89 28.76 39.82 28.77C38.27 28.72 37.04 27.45 37.04 25.89C37.04 24.3 38.33 23 39.93 23C41.52 23 42.82 24.29 42.82 25.89C42.81 27.45 41.58 28.72 40.03 28.77Z" fill="#374A55"/>
<path opacity="0.4" d="M43.29 35.7C42.17 36.45 40.6 36.73 39.15 36.54C39.53 35.72 39.73 34.81 39.74 33.85C39.74 32.85 39.52 31.9 39.1 31.07C40.58 30.87 42.15 31.15 43.28 31.9C44.86 32.94 44.86 34.65 43.29 35.7Z" fill="#374A55"/>
<path opacity="0.4" d="M28.94 28.77C29.01 28.76 29.08 28.76 29.15 28.77C30.7 28.72 31.93 27.45 31.93 25.89C31.93 24.3 30.64 23 29.04 23C27.45 23 26.15 24.29 26.15 25.89C26.16 27.45 27.39 28.72 28.94 28.77Z" fill="#374A55"/>
<path opacity="0.4" d="M29.05 33.85C29.05 34.82 29.26 35.74 29.64 36.57C28.23 36.72 26.76 36.42 25.68 35.71C24.1 34.66 24.1 32.95 25.68 31.9C26.75 31.18 28.26 30.89 29.68 31.05C29.27 31.89 29.05 32.84 29.05 33.85Z" fill="#374A55"/>
<path d="M34.62 36.87C34.54 36.86 34.45 36.86 34.36 36.87C32.52 36.81 31.05 35.3 31.05 33.44C31.05 31.54 32.58 30 34.49 30C36.39 30 37.93 31.54 37.93 33.44C37.93 35.3 36.47 36.81 34.62 36.87Z" fill="#374A55"/>
<path d="M31.37 38.94C29.86 39.95 29.86 41.61 31.37 42.61C33.09 43.76 35.91 43.76 37.63 42.61C39.14 41.6 39.14 39.94 37.63 38.94C35.92 37.79 33.1 37.79 31.37 38.94Z" fill="#374A55"/>
</svg>
