<svg width="68" height="66" viewBox="0 0 68 66" fill="none" xmlns="http://www.w3.org/2000/svg">
<rect x="1" y="1" width="66" height="64" rx="14" stroke="#E8ECF3" stroke-width="2"/>
<path opacity="0.4" d="M29.5 25.5H29.25V23C29.25 22.59 28.91 22.25 28.5 22.25C28.09 22.25 27.75 22.59 27.75 23V25.5H27.5C25.91 25.5 25 26.41 25 28V34C25 35.59 25.91 36.5 27.5 36.5H27.75V43C27.75 43.41 28.09 43.75 28.5 43.75C28.91 43.75 29.25 43.41 29.25 43V36.5H29.5C31.09 36.5 32 35.59 32 34V28C32 26.41 31.09 25.5 29.5 25.5Z" fill="#374A55"/>
<path d="M40.5 29.5H40.25V23C40.25 22.59 39.91 22.25 39.5 22.25C39.09 22.25 38.75 22.59 38.75 23V29.5H38.5C36.91 29.5 36 30.41 36 32V38C36 39.59 36.91 40.5 38.5 40.5H38.75V43C38.75 43.41 39.09 43.75 39.5 43.75C39.91 43.75 40.25 43.41 40.25 43V40.5H40.5C42.09 40.5 43 39.59 43 38V32C43 30.41 42.09 29.5 40.5 29.5Z" fill="#374A55"/>
</svg>
