<svg width="68" height="66" viewBox="0 0 68 66" fill="none" xmlns="http://www.w3.org/2000/svg">
<rect x="1" y="1" width="66" height="64" rx="14" stroke="#E8ECF3" stroke-width="2"/>
<path d="M44 29V37.19C44 40.83 41.83 43 38.19 43H29.81C26.17 43 24 40.83 24 37.19V29.01L44 29Z" fill="#374A55"/>
<path d="M31 38.75C30.89 38.75 30.77 38.72 30.67 38.67C29.9 38.28 29.24 37.7 28.76 36.98C28.36 36.38 28.36 35.61 28.76 35.01C29.24 34.29 29.9 33.71 30.67 33.33C31.04 33.14 31.49 33.3 31.68 33.67C31.87 34.04 31.72 34.49 31.34 34.68C30.8 34.95 30.34 35.36 30.01 35.86C29.95 35.95 29.95 36.07 30.01 36.17C30.34 36.67 30.8 37.08 31.34 37.35C31.71 37.54 31.86 37.99 31.68 38.36C31.54 38.6 31.27 38.75 31 38.75Z" fill="white"/>
<path d="M37.21 38.75C36.93 38.75 36.67 38.6 36.54 38.34C36.35 37.97 36.5 37.52 36.88 37.33C37.42 37.06 37.88 36.65 38.21 36.15C38.27 36.06 38.27 35.94 38.21 35.84C37.88 35.34 37.42 34.93 36.88 34.66C36.51 34.47 36.36 34.02 36.54 33.65C36.73 33.28 37.18 33.13 37.55 33.31C38.32 33.7 38.98 34.28 39.46 35C39.86 35.6 39.86 36.37 39.46 36.97C38.98 37.69 38.32 38.27 37.55 38.65C37.43 38.72 37.32 38.75 37.21 38.75Z" fill="white"/>
<path opacity="0.4" d="M44 28.81V29L24 29.01V28.81C24 25.17 26.17 23 29.81 23H38.19C41.83 23 44 25.17 44 28.81Z" fill="#374A55"/>
</svg>
