<svg width="69" height="66" viewBox="0 0 69 66" fill="none" xmlns="http://www.w3.org/2000/svg">
<rect x="1.5" y="1" width="66" height="64" rx="14" stroke="#E8ECF3" stroke-width="2"/>
<path d="M44.1601 31.44L43.1801 35.62C42.3401 39.23 40.6801 40.69 37.5601 40.39C37.0601 40.35 36.5201 40.26 35.9401 40.12L34.2601 39.72C30.0901 38.73 28.8001 36.67 29.7801 32.49L30.7601 28.3C30.9601 27.45 31.2001 26.71 31.5001 26.1C32.6701 23.68 34.6601 23.03 38.0001 23.82L39.6701 24.21C43.8601 25.19 45.1401 27.26 44.1601 31.44Z" fill="#374A55"/>
<path opacity="0.4" d="M37.56 40.39C36.94 40.81 36.16 41.16 35.21 41.47L33.63 41.99C29.66 43.27 27.57 42.2 26.28 38.23L25 34.28C23.72 30.31 24.78 28.21 28.75 26.93L30.33 26.41C30.74 26.28 31.13 26.17 31.5 26.1C31.2 26.71 30.96 27.45 30.76 28.3L29.78 32.49C28.8 36.67 30.09 38.73 34.26 39.72L35.94 40.12C36.52 40.26 37.06 40.35 37.56 40.39Z" fill="#374A55"/>
<path d="M39.99 31.51C39.93 31.51 39.87 31.5 39.8 31.49L34.95 30.26C34.55 30.16 34.31 29.75 34.41 29.35C34.51 28.95 34.92 28.71 35.32 28.81L40.17 30.04C40.57 30.14 40.81 30.55 40.71 30.95C40.63 31.28 40.32 31.51 39.99 31.51Z" fill="white"/>
<path d="M37.06 34.89C37 34.89 36.94 34.88 36.87 34.87L33.96 34.13C33.56 34.03 33.32 33.62 33.42 33.22C33.52 32.82 33.93 32.58 34.33 32.68L37.24 33.42C37.64 33.52 37.88 33.93 37.78 34.33C37.7 34.67 37.4 34.89 37.06 34.89Z" fill="white"/>
</svg>
