<svg width="20" height="20" viewBox="0 0 20 20" fill="none" xmlns="http://www.w3.org/2000/svg">
<path d="M1.6 7.44775H18.4M1.6 13.4478H18.4M9.5 1.44775C7.81534 4.14737 6.9222 7.26562 6.9222 10.4478C6.9222 13.6299 7.81534 16.7481 9.5 19.4478M10.5 1.44775C12.1847 4.14737 13.0778 7.26562 13.0778 10.4478C13.0778 13.6299 12.1847 16.7481 10.5 19.4478M1 10.4478C1 11.6297 1.23279 12.8 1.68508 13.8919C2.13738 14.9838 2.80031 15.976 3.63604 16.8117C4.47177 17.6474 5.46392 18.3104 6.55585 18.7627C7.64778 19.215 8.8181 19.4478 10 19.4478C11.1819 19.4478 12.3522 19.215 13.4442 18.7627C14.5361 18.3104 15.5282 17.6474 16.364 16.8117C17.1997 15.976 17.8626 14.9838 18.3149 13.8919C18.7672 12.8 19 11.6297 19 10.4478C19 8.06081 18.0518 5.77162 16.364 4.08379C14.6761 2.39597 12.3869 1.44775 10 1.44775C7.61305 1.44775 5.32387 2.39597 3.63604 4.08379C1.94821 5.77162 1 8.06081 1 10.4478Z" stroke="#565656" stroke-linecap="round" stroke-linejoin="round"/>
</svg>
