<svg width="111" height="54" viewBox="0 0 111 54" fill="none" xmlns="http://www.w3.org/2000/svg">
<path fill-rule="evenodd" clip-rule="evenodd" d="M36.3951 22.6733L36.3854 37.7526C37.2814 37.6805 40.0024 35.838 41.0255 35.2572C42.3492 34.5055 44.1181 33.4822 45.5039 32.6698L45.4942 27.9059C45.0889 27.4813 36.9815 22.7655 36.3951 22.6733Z" fill="#734DCD"/>
<path fill-rule="evenodd" clip-rule="evenodd" d="M9.13395 27.7366C10.4506 27.3755 16.3042 23.3862 18.2224 22.6228L18.2113 13.0155L11.5753 9.13117C10.8939 8.73264 9.80046 7.95738 9.12329 7.92028L9.13395 27.7366Z" fill="#734DCD"/>
<path fill-rule="evenodd" clip-rule="evenodd" d="M9.13395 27.7366C7.94343 27.322 1.05181 22.8546 0 22.6448L0.027969 48.0225C0.638544 47.8835 8.68256 43.1668 9.13636 42.7962L9.13395 27.7366Z" fill="#734DCD"/>
<path fill-rule="evenodd" clip-rule="evenodd" d="M27.2679 27.7561C28.0587 27.5528 30.6998 25.8688 31.8161 25.2163C32.6514 24.7281 35.7318 22.8256 36.3951 22.6733L36.4008 5.41189C36.1333 4.76667 34.954 4.31287 34.2628 3.90879C33.499 3.46246 32.7488 3.05246 31.9443 2.58049C30.9211 1.98002 28.0256 0.139982 27.2751 0L27.2679 27.7561Z" fill="#734DCD"/>
<path fill-rule="evenodd" clip-rule="evenodd" d="M27.2679 27.7561C25.7202 26.9703 24.2129 25.9837 22.7442 25.1454C22.0067 24.7245 21.278 24.3227 20.546 23.8869C19.8195 23.4541 19.0098 22.8955 18.2091 22.6046L18.2095 53.1633C18.7413 52.9888 26.7861 48.3947 27.1991 47.9741C27.4385 47.1499 27.4247 29.7004 27.2679 27.7561Z" fill="#734DCD"/>
<path d="M65.6968 18.735H69.1198V34.17L58.9558 25.161V33.435H55.5538V18L65.6968 27.009V18.735Z" fill="white"/>
<path d="M74.3687 30.411C74.3687 30.663 74.4317 30.88 74.5577 31.062C74.6837 31.23 74.8517 31.363 75.0617 31.461C75.2717 31.545 75.5027 31.587 75.7547 31.587C76.1187 31.587 76.4547 31.51 76.7627 31.356C77.0707 31.202 77.3227 30.971 77.5187 30.663C77.7147 30.355 77.8127 29.977 77.8127 29.529L78.1487 30.789C78.1487 31.405 77.9807 31.93 77.6447 32.364C77.3087 32.784 76.8747 33.106 76.3427 33.33C75.8107 33.54 75.2367 33.645 74.6207 33.645C74.0047 33.645 73.4307 33.533 72.8987 33.309C72.3807 33.071 71.9607 32.721 71.6387 32.259C71.3307 31.797 71.1767 31.237 71.1767 30.579C71.1767 29.655 71.5057 28.927 72.1637 28.395C72.8217 27.849 73.7527 27.576 74.9567 27.576C75.5447 27.576 76.0697 27.632 76.5317 27.744C77.0077 27.856 77.4137 27.996 77.7497 28.164C78.0857 28.332 78.3377 28.507 78.5057 28.689V30.096C78.1697 29.844 77.7777 29.655 77.3297 29.529C76.8957 29.389 76.4337 29.319 75.9437 29.319C75.5657 29.319 75.2647 29.361 75.0407 29.445C74.8167 29.529 74.6487 29.655 74.5367 29.823C74.4247 29.977 74.3687 30.173 74.3687 30.411ZM72.9617 26.736L71.8907 24.615C72.4367 24.349 73.0947 24.097 73.8647 23.859C74.6347 23.621 75.4747 23.502 76.3847 23.502C77.2387 23.502 78.0017 23.628 78.6737 23.88C79.3457 24.118 79.8777 24.468 80.2697 24.93C80.6617 25.392 80.8577 25.959 80.8577 26.631V33.435H77.8127V27.345C77.8127 27.107 77.7707 26.904 77.6867 26.736C77.6167 26.554 77.5047 26.4 77.3507 26.274C77.1967 26.148 77.0007 26.057 76.7627 26.001C76.5387 25.945 76.2797 25.917 75.9857 25.917C75.5517 25.917 75.1247 25.966 74.7047 26.064C74.2987 26.162 73.9417 26.281 73.6337 26.421C73.3257 26.547 73.1017 26.652 72.9617 26.736Z" fill="white"/>
<path d="M97.974 27.219V33.435H94.782V27.555C94.782 26.967 94.684 26.526 94.488 26.232C94.306 25.924 93.998 25.77 93.564 25.77C93.284 25.77 93.032 25.84 92.808 25.98C92.598 26.106 92.43 26.302 92.304 26.568C92.192 26.834 92.136 27.163 92.136 27.555V33.435H88.944V27.555C88.944 26.967 88.846 26.526 88.65 26.232C88.468 25.924 88.16 25.77 87.726 25.77C87.446 25.77 87.194 25.84 86.97 25.98C86.76 26.106 86.592 26.302 86.466 26.568C86.354 26.834 86.298 27.163 86.298 27.555V33.435H83.232V23.775H86.298V25.203C86.564 24.685 86.928 24.279 87.39 23.985C87.866 23.691 88.433 23.544 89.091 23.544C89.847 23.544 90.449 23.684 90.897 23.964C91.345 24.23 91.667 24.622 91.863 25.14C92.213 24.636 92.647 24.244 93.165 23.964C93.683 23.684 94.271 23.544 94.929 23.544C95.685 23.544 96.28 23.691 96.714 23.985C97.162 24.265 97.484 24.678 97.68 25.224C97.876 25.77 97.974 26.435 97.974 27.219Z" fill="white"/>
<path d="M105.373 33.645C104.253 33.645 103.28 33.442 102.454 33.036C101.642 32.616 101.012 32.028 100.564 31.272C100.116 30.516 99.8916 29.627 99.8916 28.605C99.8916 27.569 100.109 26.673 100.543 25.917C100.977 25.161 101.6 24.58 102.412 24.174C103.238 23.768 104.211 23.565 105.331 23.565C106.451 23.565 107.396 23.761 108.166 24.153C108.936 24.531 109.524 25.084 109.93 25.812C110.336 26.54 110.539 27.422 110.539 28.458C110.539 28.612 110.539 28.766 110.539 28.92C110.539 29.06 110.525 29.179 110.497 29.277H101.677V27.513H107.641L106.885 28.479C106.955 28.381 107.011 28.262 107.053 28.122C107.109 27.968 107.137 27.842 107.137 27.744C107.137 27.324 107.06 26.96 106.906 26.652C106.752 26.344 106.535 26.106 106.255 25.938C105.975 25.77 105.646 25.686 105.268 25.686C104.792 25.686 104.393 25.791 104.071 26.001C103.749 26.211 103.504 26.533 103.336 26.967C103.182 27.387 103.098 27.919 103.084 28.563C103.084 29.151 103.168 29.655 103.336 30.075C103.504 30.495 103.756 30.817 104.092 31.041C104.428 31.251 104.841 31.356 105.331 31.356C105.891 31.356 106.367 31.251 106.759 31.041C107.165 30.831 107.487 30.516 107.725 30.096L110.56 30.789C110.056 31.741 109.37 32.455 108.502 32.931C107.648 33.407 106.605 33.645 105.373 33.645Z" fill="white"/>
</svg>
