<svg width="656" height="183" viewBox="0 0 656 183" fill="none" xmlns="http://www.w3.org/2000/svg">
<path d="M328 0V35" stroke="#374A55" stroke-width="2" stroke-dasharray="4 4"/>
<path d="M11.3333 177C11.3333 179.946 8.94553 182.333 6 182.333C3.05447 182.333 0.666656 179.946 0.666656 177C0.666656 174.054 3.05447 171.667 6 171.667C8.94553 171.667 11.3333 174.054 11.3333 177ZM328 39H329C329 39.7181 328.983 40.4323 328.948 41.1421L327.95 41.0938L326.951 41.0456C326.983 40.3679 327 39.6859 327 39H328ZM327.544 45.2611L328.533 45.4066C328.324 46.8312 328.045 48.2336 327.701 49.6102L326.731 49.3679L325.761 49.1256C326.089 47.8126 326.354 46.4748 326.554 45.1155L327.544 45.2611ZM325.517 53.3743L326.459 53.7113C325.975 55.0628 325.427 56.3834 324.818 57.6695L323.914 57.2413L323.01 56.8131C323.591 55.5863 324.114 54.3265 324.576 53.0374L325.517 53.3743ZM321.937 60.9316L322.795 61.4465C322.057 62.6738 321.262 63.8618 320.411 65.0067L319.608 64.4104L318.806 63.8141C319.617 62.7215 320.377 61.5878 321.08 60.4167L321.937 60.9316ZM316.951 67.6451L317.692 68.3168C316.732 69.3752 315.721 70.3863 314.662 71.3461L313.991 70.6053L313.319 69.8646C314.329 68.9485 315.294 67.9835 316.21 66.9733L316.951 67.6451ZM310.756 73.263L311.352 74.0657C310.207 74.9162 309.019 75.7119 307.792 76.4491L307.277 75.5919L306.762 74.7346C307.933 74.0312 309.067 73.2719 310.16 72.4602L310.756 73.263ZM303.587 77.5684L304.015 78.4721C302.729 79.0814 301.408 79.6298 300.057 80.1134L299.72 79.1719L299.383 78.2304C300.672 77.769 301.932 77.246 303.159 76.6647L303.587 77.5684ZM295.713 80.3857L295.956 81.3559C294.579 81.6997 293.177 81.9781 291.752 82.1876L291.607 81.1983L291.461 80.2089C292.82 80.009 294.158 79.7434 295.471 79.4155L295.713 80.3857ZM287.439 81.6041L287.488 82.6029C286.778 82.6372 286.064 82.6545 285.345 82.6545V81.6545V80.6545C286.031 80.6545 286.713 80.638 287.391 80.6052L287.439 81.6041ZM285.345 81.6545V82.6545H283.368V81.6545V80.6545H285.345V81.6545ZM279.414 81.6545V82.6545H275.46V81.6545V80.6545H279.414V81.6545ZM271.506 81.6545V82.6545H267.551V81.6545V80.6545H271.506V81.6545ZM263.597 81.6545V82.6545H259.643V81.6545V80.6545H263.597V81.6545ZM255.689 81.6545V82.6545H251.734V81.6545V80.6545H255.689V81.6545ZM247.78 81.6545V82.6545H243.826V81.6545V80.6545H247.78V81.6545ZM239.872 81.6545V82.6545H235.918V81.6545V80.6545H239.872V81.6545ZM231.963 81.6545V82.6545H228.009V81.6545V80.6545H231.963V81.6545ZM224.055 81.6545V82.6545H220.101V81.6545V80.6545H224.055V81.6545ZM216.146 81.6545V82.6545H212.192V81.6545V80.6545H216.146V81.6545ZM208.238 81.6545V82.6545H204.284V81.6545V80.6545H208.238V81.6545ZM200.329 81.6545V82.6545H196.375V81.6545V80.6545H200.329V81.6545ZM192.421 81.6545V82.6545H188.467V81.6545V80.6545H192.421V81.6545ZM184.513 81.6545V82.6545H180.558V81.6545V80.6545H184.513V81.6545ZM176.604 81.6545V82.6545H172.65V81.6545V80.6545H176.604V81.6545ZM168.696 81.6545V82.6545H164.741V81.6545V80.6545H168.696V81.6545ZM160.787 81.6545V82.6545H156.833V81.6545V80.6545H160.787V81.6545ZM152.879 81.6545V82.6545H148.924V81.6545V80.6545H152.879V81.6545ZM144.97 81.6545V82.6545H141.016V81.6545V80.6545H144.97V81.6545ZM137.062 81.6545V82.6545H133.107V81.6545V80.6545H137.062V81.6545ZM129.153 81.6545V82.6545H125.199V81.6545V80.6545H129.153V81.6545ZM121.245 81.6545V82.6545H117.291V81.6545V80.6545H121.245V81.6545ZM113.336 81.6545V82.6545H109.382V81.6545V80.6545H113.336V81.6545ZM105.428 81.6545V82.6545H101.474V81.6545V80.6545H105.428V81.6545ZM97.5193 81.6545V82.6545H93.5651V81.6545V80.6545H97.5193V81.6545ZM89.6109 81.6545V82.6545H85.6566V81.6545V80.6545H89.6109V81.6545ZM81.7024 81.6545V82.6545H77.7482V81.6545V80.6545H81.7024V81.6545ZM73.7939 81.6545V82.6545H69.8397V81.6545V80.6545H73.7939V81.6545ZM65.8854 81.6545V82.6545H61.9312V81.6545V80.6545H65.8854V81.6545ZM57.977 81.6545V82.6545H56V81.6545V80.6545H57.977V81.6545ZM56 81.6545V82.6545C55.3546 82.6545 54.712 82.667 54.0728 82.6917L54.0341 81.6925L53.9955 80.6932C54.6605 80.6675 55.3288 80.6545 56 80.6545V81.6545ZM50.1195 81.9967L50.2359 82.9899C48.9534 83.1402 47.6861 83.3399 46.436 83.5872L46.2419 82.6062L46.0478 81.6253C47.3492 81.3678 48.6684 81.1599 50.0031 81.0035L50.1195 81.9967ZM42.4224 83.5201L42.6934 84.4827C41.4535 84.8317 40.2335 85.2283 39.0356 85.6704L38.6894 84.7323L38.3431 83.7941C39.5904 83.3338 40.8605 82.9209 42.1514 82.5575L42.4224 83.5201ZM35.0616 86.2366L35.4809 87.1445C34.3131 87.6837 33.1702 88.2676 32.0543 88.8939L31.5648 88.0218L31.0754 87.1498C32.237 86.4978 33.4268 85.8901 34.6424 85.3287L35.0616 86.2366ZM28.2192 90.0763L28.7755 90.9072C27.708 91.622 26.67 92.3775 25.6639 93.1717L25.0443 92.3868L24.4247 91.6019C25.4717 90.7755 26.5518 89.9891 27.6629 89.2453L28.2192 90.0763ZM22.06 94.9381L22.7389 95.6723C21.7968 96.5435 20.889 97.4514 20.0177 98.3935L19.2835 97.7145L18.5494 97.0355C19.456 96.0552 20.4007 95.1106 21.381 94.2039L22.06 94.9381ZM16.7323 100.699L17.5172 101.318C16.723 102.325 15.9674 103.363 15.2527 104.43L14.4217 103.874L13.5908 103.317C14.3346 102.206 15.1209 101.126 15.9474 100.079L16.7323 100.699ZM12.3672 107.219L13.2393 107.709C12.613 108.825 12.0291 109.968 11.4899 111.135L10.582 110.716L9.67416 110.297C10.2355 109.081 10.8433 107.892 11.4952 106.73L12.3672 107.219ZM9.07773 114.344L10.0159 114.69C9.57376 115.888 9.17715 117.108 8.82809 118.348L7.86551 118.077L6.90292 117.806C7.26633 116.515 7.67929 115.245 8.13956 113.998L9.07773 114.344ZM6.95169 121.896L7.93268 122.091C7.68536 123.341 7.4856 124.608 7.33536 125.89L6.34213 125.774L5.34894 125.658C5.50531 124.323 5.71326 123.004 5.9707 121.702L6.95169 121.896ZM6.03793 129.689L7.03717 129.727C7.01248 130.367 7 131.009 7 131.655H6H5C5 130.983 5.01297 130.315 5.03867 129.65L6.03793 129.689ZM6 131.655H7V133.544H6H5V131.655H6ZM6 137.323H7V141.102H6H5V137.323H6ZM6 144.88H7V148.659H6H5V144.88H6ZM6 152.438H7V156.217H6H5V152.438H6ZM6 159.995H7V163.774H6H5V159.995H6ZM6 167.553H7V171.332H6H5V167.553H6ZM6 175.111H7V177H6H5V175.111H6Z" fill="#374A55"/>
<path d="M644.667 177C644.667 179.946 647.054 182.333 650 182.333C652.946 182.333 655.333 179.946 655.333 177C655.333 174.054 652.946 171.667 650 171.667C647.054 171.667 644.667 174.054 644.667 177ZM328 39H327C327 39.7181 327.017 40.4323 327.052 41.1421L328.05 41.0938L329.049 41.0456C329.017 40.3679 329 39.6859 329 39H328ZM328.456 45.2611L327.467 45.4066C327.676 46.8312 327.955 48.2336 328.299 49.6102L329.269 49.3679L330.239 49.1256C329.911 47.8126 329.646 46.4748 329.446 45.1155L328.456 45.2611ZM330.483 53.3743L329.541 53.7113C330.025 55.0628 330.573 56.3834 331.182 57.6695L332.086 57.2413L332.99 56.8131C332.409 55.5863 331.886 54.3265 331.424 53.0374L330.483 53.3743ZM334.063 60.9316L333.205 61.4465C333.943 62.6738 334.738 63.8618 335.589 65.0067L336.392 64.4104L337.194 63.8141C336.383 62.7215 335.623 61.5878 334.92 60.4167L334.063 60.9316ZM339.049 67.6451L338.308 68.3168C339.268 69.3752 340.279 70.3863 341.338 71.3461L342.009 70.6053L342.681 69.8646C341.671 68.9485 340.706 67.9835 339.79 66.9733L339.049 67.6451ZM345.244 73.263L344.648 74.0657C345.793 74.9162 346.981 75.7119 348.208 76.4491L348.723 75.5919L349.238 74.7346C348.067 74.0312 346.933 73.2719 345.84 72.4602L345.244 73.263ZM352.413 77.5684L351.985 78.4721C353.271 79.0814 354.592 79.6298 355.943 80.1134L356.28 79.1719L356.617 78.2304C355.328 77.769 354.068 77.246 352.841 76.6647L352.413 77.5684ZM360.287 80.3857L360.044 81.3559C361.421 81.6997 362.823 81.9781 364.248 82.1876L364.393 81.1983L364.539 80.2089C363.18 80.009 361.842 79.7434 360.529 79.4155L360.287 80.3857ZM368.561 81.6041L368.512 82.6029C369.222 82.6372 369.936 82.6545 370.655 82.6545V81.6545V80.6545C369.969 80.6545 369.287 80.638 368.609 80.6052L368.561 81.6041ZM370.655 81.6545V82.6545H372.632V81.6545V80.6545H370.655V81.6545ZM376.586 81.6545V82.6545H380.54V81.6545V80.6545H376.586V81.6545ZM384.494 81.6545V82.6545H388.449V81.6545V80.6545H384.494V81.6545ZM392.403 81.6545V82.6545H396.357V81.6545V80.6545H392.403V81.6545ZM400.311 81.6545V82.6545H404.266V81.6545V80.6545H400.311V81.6545ZM408.22 81.6545V82.6545H412.174V81.6545V80.6545H408.22V81.6545ZM416.128 81.6545V82.6545H420.082V81.6545V80.6545H416.128V81.6545ZM424.037 81.6545V82.6545H427.991V81.6545V80.6545H424.037V81.6545ZM431.945 81.6545V82.6545H435.899V81.6545V80.6545H431.945V81.6545ZM439.854 81.6545V82.6545H443.808V81.6545V80.6545H439.854V81.6545ZM447.762 81.6545V82.6545H451.716V81.6545V80.6545H447.762V81.6545ZM455.671 81.6545V82.6545H459.625V81.6545V80.6545H455.671V81.6545ZM463.579 81.6545V82.6545H467.533V81.6545V80.6545H463.579V81.6545ZM471.487 81.6545V82.6545H475.442V81.6545V80.6545H471.487V81.6545ZM479.396 81.6545V82.6545H483.35V81.6545V80.6545H479.396V81.6545ZM487.304 81.6545V82.6545H491.259V81.6545V80.6545H487.304V81.6545ZM495.213 81.6545V82.6545H499.167V81.6545V80.6545H495.213V81.6545ZM503.121 81.6545V82.6545H507.076V81.6545V80.6545H503.121V81.6545ZM511.03 81.6545V82.6545H514.984V81.6545V80.6545H511.03V81.6545ZM518.938 81.6545V82.6545H522.893V81.6545V80.6545H518.938V81.6545ZM526.847 81.6545V82.6545H530.801V81.6545V80.6545H526.847V81.6545ZM534.755 81.6545V82.6545H538.709V81.6545V80.6545H534.755V81.6545ZM542.664 81.6545V82.6545H546.618V81.6545V80.6545H542.664V81.6545ZM550.572 81.6545V82.6545H554.526V81.6545V80.6545H550.572V81.6545ZM558.481 81.6545V82.6545H562.435V81.6545V80.6545H558.481V81.6545ZM566.389 81.6545V82.6545H570.343V81.6545V80.6545H566.389V81.6545ZM574.298 81.6545V82.6545H578.252V81.6545V80.6545H574.298V81.6545ZM582.206 81.6545V82.6545H586.16V81.6545V80.6545H582.206V81.6545ZM590.115 81.6545V82.6545H594.069V81.6545V80.6545H590.115V81.6545ZM598.023 81.6545V82.6545H600V81.6545V80.6545H598.023V81.6545ZM600 81.6545V82.6545C600.645 82.6545 601.288 82.667 601.927 82.6917L601.966 81.6925L602.005 80.6932C601.339 80.6675 600.671 80.6545 600 80.6545V81.6545ZM605.88 81.9967L605.764 82.9899C607.047 83.1402 608.314 83.3399 609.564 83.5872L609.758 82.6062L609.952 81.6253C608.651 81.3678 607.332 81.1599 605.997 81.0035L605.88 81.9967ZM613.578 83.5201L613.307 84.4827C614.547 84.8317 615.766 85.2283 616.964 85.6704L617.311 84.7323L617.657 83.7941C616.41 83.3338 615.139 82.9209 613.849 82.5575L613.578 83.5201ZM620.938 86.2366L620.519 87.1445C621.687 87.6837 622.83 88.2676 623.946 88.8939L624.435 88.0218L624.925 87.1498C623.763 86.4978 622.573 85.8901 621.358 85.3287L620.938 86.2366ZM627.781 90.0763L627.224 90.9072C628.292 91.622 629.33 92.3775 630.336 93.1717L630.956 92.3868L631.575 91.6019C630.528 90.7755 629.448 89.9891 628.337 89.2453L627.781 90.0763ZM633.94 94.9381L633.261 95.6723C634.203 96.5435 635.111 97.4514 635.982 98.3935L636.716 97.7145L637.451 97.0355C636.544 96.0552 635.599 95.1106 634.619 94.2039L633.94 94.9381ZM639.268 100.699L638.483 101.318C639.277 102.325 640.033 103.363 640.747 104.43L641.578 103.874L642.409 103.317C641.665 102.206 640.879 101.126 640.053 100.079L639.268 100.699ZM643.633 107.219L642.761 107.709C643.387 108.825 643.971 109.968 644.51 111.135L645.418 110.716L646.326 110.297C645.764 109.081 645.157 107.892 644.505 106.73L643.633 107.219ZM646.922 114.344L645.984 114.69C646.426 115.888 646.823 117.108 647.172 118.348L648.134 118.077L649.097 117.806C648.734 116.515 648.321 115.245 647.86 113.998L646.922 114.344ZM649.048 121.896L648.067 122.091C648.315 123.341 648.514 124.608 648.665 125.89L649.658 125.774L650.651 125.658C650.495 124.323 650.287 123.004 650.029 121.702L649.048 121.896ZM649.962 129.689L648.963 129.727C648.988 130.367 649 131.009 649 131.655H650H651C651 130.983 650.987 130.315 650.961 129.65L649.962 129.689ZM650 131.655H649V133.544H650H651V131.655H650ZM650 137.323H649V141.102H650H651V137.323H650ZM650 144.88H649V148.659H650H651V144.88H650ZM650 152.438H649V156.217H650H651V152.438H650ZM650 159.995H649V163.774H650H651V159.995H650ZM650 167.553H649V171.332H650H651V167.553H650ZM650 175.111H649V177H650H651V175.111H650Z" fill="#374A55"/>
</svg>
