<svg width="68" height="66" viewBox="0 0 68 66" fill="none" xmlns="http://www.w3.org/2000/svg">
<rect x="1" y="1" width="66" height="64" rx="14" stroke="#E8ECF3" stroke-width="2"/>
<path opacity="0.4" d="M44 28.81V35H39.92C39.25 35 38.46 34.52 38.15 33.93L37.11 31.96C36.83 31.43 36.43 31.46 36.21 32.01L33.91 37.82C33.66 38.47 33.24 38.47 32.98 37.82L31.84 34.94C31.57 34.24 30.73 33.67 29.98 33.67L24 33.7V28.81C24 25.17 26.17 23 29.81 23H38.19C41.83 23 44 25.17 44 28.81Z" fill="#374A55"/>
<path d="M44 37.1897V34.9997H39.92C39.25 34.9997 38.46 34.5197 38.15 33.9297L37.11 31.9597C36.83 31.4297 36.43 31.4597 36.21 32.0097L33.91 37.8197C33.66 38.4697 33.24 38.4697 32.98 37.8197L31.84 34.9397C31.57 34.2397 30.73 33.6697 29.98 33.6697L24 33.6997V37.1897C24 40.7697 26.1 42.9297 29.63 42.9897C29.74 42.9997 29.86 42.9997 29.97 42.9997H37.97C38.12 42.9997 38.27 42.9997 38.41 42.9897C41.92 42.9097 44 40.7597 44 37.1897Z" fill="#374A55"/>
<path d="M23.9997 33.7002V37.0102C23.9797 36.6902 23.9697 36.3502 23.9697 36.0002V33.7002H23.9997Z" fill="white"/>
</svg>
