<svg width="68" height="66" viewBox="0 0 68 66" fill="none" xmlns="http://www.w3.org/2000/svg">
<rect x="1" y="1" width="66" height="64" rx="14" stroke="#E8ECF3" stroke-width="2"/>
<path opacity="0.4" d="M41.7897 25.2203C38.8297 22.2703 34.0297 22.2703 31.0897 25.2203C29.0197 27.2703 28.3997 30.2203 29.1997 32.8203L24.4997 37.5203C24.1697 37.8603 23.9397 38.5303 24.0097 39.0103L24.3097 41.1903C24.4197 41.9103 25.0897 42.5903 25.8097 42.6903L27.9897 42.9903C28.4697 43.0603 29.1397 42.8403 29.4797 42.4903L30.2997 41.6703C30.4997 41.4803 30.4997 41.1603 30.2997 40.9603L28.3597 39.0203C28.0697 38.7303 28.0697 38.2503 28.3597 37.9603C28.6497 37.6703 29.1297 37.6703 29.4197 37.9603L31.3697 39.9103C31.5597 40.1003 31.8797 40.1003 32.0697 39.9103L34.1897 37.8003C36.7797 38.6103 39.7297 37.9803 41.7897 35.9303C44.7397 32.9803 44.7397 28.1703 41.7897 25.2203ZM36.4997 33.0003C35.1197 33.0003 33.9997 31.8803 33.9997 30.5003C33.9997 29.1203 35.1197 28.0003 36.4997 28.0003C37.8797 28.0003 38.9997 29.1203 38.9997 30.5003C38.9997 31.8803 37.8797 33.0003 36.4997 33.0003Z" fill="#374A55"/>
<path d="M36.5 33C37.8807 33 39 31.8807 39 30.5C39 29.1193 37.8807 28 36.5 28C35.1193 28 34 29.1193 34 30.5C34 31.8807 35.1193 33 36.5 33Z" fill="#374A55"/>
</svg>
