<svg width="68" height="66" viewBox="0 0 68 66" fill="none" xmlns="http://www.w3.org/2000/svg">
<rect x="1" y="1" width="66" height="64" rx="14" stroke="white" stroke-width="2"/>
<path d="M30.0903 32.6305H25.4003C25.4803 27.9605 26.4003 27.1904 29.2703 25.4904C29.6003 25.2904 29.7103 24.8705 29.5103 24.5305C29.3103 24.2005 28.8902 24.0905 28.5502 24.2905C25.1702 26.2905 23.9902 27.5104 23.9902 33.3304V38.7205C23.9902 40.4305 25.3803 41.8105 27.0803 41.8105H30.0803C31.8403 41.8105 33.1702 40.4805 33.1702 38.7205V35.7205C33.1802 33.9605 31.8503 32.6305 30.0903 32.6305Z" fill="#374A55"/>
<path opacity="0.4" d="M40.9095 32.6305H36.2195C36.2995 27.9605 37.2196 27.1904 40.0896 25.4904C40.4196 25.2904 40.5296 24.8705 40.3296 24.5305C40.1296 24.2005 39.7096 24.0905 39.3696 24.2905C35.9896 26.2905 34.8096 27.5104 34.8096 33.3304V38.7205C34.8096 40.4305 36.1996 41.8105 37.8996 41.8105H40.8996C42.6596 41.8105 43.9896 40.4805 43.9896 38.7205V35.7205C43.9996 33.9605 42.6695 32.6305 40.9095 32.6305Z" fill="#374A55"/>
</svg>
