<svg width="68" height="66" viewBox="0 0 68 66" fill="none" xmlns="http://www.w3.org/2000/svg">
<rect x="1" y="1" width="66" height="64" rx="14" stroke="#E8ECF3" stroke-width="2"/>
<path d="M37.9101 33.3704H42.6001C42.5201 38.0404 41.6001 38.8104 38.7301 40.5104C38.4001 40.7104 38.2901 41.1304 38.4901 41.4704C38.6901 41.8004 39.1101 41.9104 39.4501 41.7104C42.8301 39.7104 44.0101 38.4904 44.0101 32.6704V27.2805C44.0101 25.5705 42.6201 24.1904 40.9201 24.1904H37.9201C36.1601 24.1904 34.8301 25.5205 34.8301 27.2805V30.2805C34.8201 32.0405 36.1501 33.3704 37.9101 33.3704Z" fill="#374A55"/>
<path opacity="0.4" d="M27.0898 33.3704H31.7798C31.6998 38.0404 30.7798 38.8104 27.9098 40.5104C27.5798 40.7104 27.4698 41.1304 27.6698 41.4704C27.8698 41.8004 28.2898 41.9104 28.6298 41.7104C32.0098 39.7104 33.1898 38.4904 33.1898 32.6704V27.2805C33.1898 25.5705 31.7998 24.1904 30.0998 24.1904H27.0998C25.3398 24.1904 24.0098 25.5205 24.0098 27.2805V30.2805C23.9998 32.0405 25.3298 33.3704 27.0898 33.3704Z" fill="#374A55"/>
</svg>
