<svg width="68" height="66" viewBox="0 0 68 66" fill="none" xmlns="http://www.w3.org/2000/svg">
<rect x="1" y="1" width="66" height="64" rx="14" stroke="#E8ECF3" stroke-width="2"/>
<path opacity="0.4" d="M40.04 34.55C39.62 34.96 39.38 35.55 39.44 36.18C39.53 37.26 40.52 38.05 41.6 38.05H43.5V39.24C43.5 41.31 41.81 43 39.74 43H28.26C26.19 43 24.5 41.31 24.5 39.24V32.51C24.5 30.44 26.19 28.75 28.26 28.75H39.74C41.81 28.75 43.5 30.44 43.5 32.51V33.95H41.48C40.92 33.95 40.41 34.17 40.04 34.55Z" fill="#374A55"/>
<path d="M36.85 24.9496V28.7496H28.26C26.19 28.7496 24.5 30.4396 24.5 32.5096V28.8396C24.5 27.6496 25.23 26.5896 26.34 26.1696L34.28 23.1696C35.52 22.7096 36.85 23.6196 36.85 24.9496Z" fill="#374A55"/>
<path d="M44.5598 34.9702V37.0302C44.5598 37.5802 44.1198 38.0302 43.5598 38.0502H41.5998C40.5198 38.0502 39.5298 37.2602 39.4398 36.1802C39.3798 35.5502 39.6198 34.9602 40.0398 34.5502C40.4098 34.1702 40.9198 33.9502 41.4798 33.9502H43.5598C44.1198 33.9702 44.5598 34.4202 44.5598 34.9702Z" fill="#374A55"/>
<path d="M36 33.75H29C28.59 33.75 28.25 33.41 28.25 33C28.25 32.59 28.59 32.25 29 32.25H36C36.41 32.25 36.75 32.59 36.75 33C36.75 33.41 36.41 33.75 36 33.75Z" fill="white"/>
</svg>
